<svg width="16" height="16" viewBox="0 0 16 16" fill="none" xmlns="http://www.w3.org/2000/svg">
<path d="M15.9846 14.4133C16.0124 14.4633 15.9904 14.5041 15.9357 14.5041H10.1964C10.1421 14.5041 10.0747 14.4633 10.0474 14.4133L8.04881 10.7955C8.02106 10.7455 7.97614 10.7455 7.94839 10.7955L5.94985 14.4133C5.92208 14.4633 5.85514 14.5041 5.80086 14.5041H0.0607351C0.00644438 14.5041 -0.0155987 14.4633 0.0117508 14.4133L0.51343 13.5055C0.541187 13.4555 0.608131 13.4147 0.662424 13.4147H5.21469C5.26897 13.4147 5.33631 13.3738 5.36368 13.3238L7.94799 8.64564C7.97574 8.59566 8.02066 8.59566 8.04841 8.64564L10.6327 13.3238C10.6605 13.3738 10.7274 13.4147 10.7817 13.4147H15.334C15.3883 13.4147 15.4556 13.4555 15.483 13.5055L15.9846 14.4133Z" fill="#000178"/>
<path d="M8.04437 12.9235C8.01662 12.8735 7.9717 12.8735 7.94395 12.9235L7.13285 14.3919C7.1051 14.4419 7.12714 14.4827 7.18185 14.4827H8.8069C8.86118 14.4827 8.88322 14.4419 8.85588 14.3919L8.04437 12.9235Z" fill="#000178"/>
<path d="M14.7896 12.2242C14.8174 12.2742 14.7953 12.315 14.7407 12.315H11.3763C11.322 12.315 11.2546 12.2742 11.2273 12.2242L8.0572 6.48569C8.02943 6.43571 7.98453 6.43571 7.95678 6.48569L4.78668 12.2242C4.75893 12.2742 4.69199 12.315 4.63769 12.315H1.27289C1.2186 12.315 1.19656 12.2742 1.22391 12.2242L1.72559 11.3164C1.75334 11.2664 1.82029 11.2256 1.87458 11.2256H4.05152C4.1058 11.2256 4.17316 11.1847 4.20051 11.1348L7.95635 4.33585C7.98413 4.28587 8.02902 4.28587 8.05677 4.33585L11.8126 11.1348C11.8404 11.1847 11.9073 11.2256 11.9616 11.2256H14.1386C14.1929 11.2256 14.2602 11.2664 14.2876 11.3164L14.7896 12.2242ZM2.42768 10.0457C2.39993 10.0957 2.42198 10.1365 2.47669 10.1365H3.46615C3.52043 10.1365 3.5878 10.0957 3.61515 10.0457L7.95678 2.18688C7.98453 2.13691 8.02943 2.13691 8.0572 2.18688L12.3988 10.0457C12.4266 10.0957 12.4935 10.1365 12.5478 10.1365H13.5373C13.5916 10.1365 13.6136 10.0957 13.5863 10.0457L8.05677 0.0374819C8.02902 -0.012494 7.98413 -0.012494 7.95635 0.0374819L2.42768 10.0457Z" fill="url(#paint0_linear_11642_356)"/>
<defs>
<linearGradient id="paint0_linear_11642_356" x1="5.02169" y1="13.576" x2="17.3477" y2="0.887661" gradientUnits="userSpaceOnUse">
<stop stop-color="#000178"/>
<stop offset="0.0304" stop-color="#020E86"/>
<stop offset="0.1206" stop-color="#0831AB"/>
<stop offset="0.2046" stop-color="#0C4AC6"/>
<stop offset="0.2791" stop-color="#0E5AD6"/>
<stop offset="0.3364" stop-color="#0F5FDC"/>
<stop offset="0.3877" stop-color="#1267DC"/>
<stop offset="0.4687" stop-color="#197EDB"/>
<stop offset="0.5692" stop-color="#25A3DA"/>
<stop offset="0.6848" stop-color="#36D6D9"/>
</linearGradient>
</defs>
</svg>
