<svg xmlns="http://www.w3.org/2000/svg" viewBox="0 0 67.5 57.5" fill="none">
  <defs>
    <linearGradient id="mark-grad" x1="20.9981" y1="53.6293" x2="69.3583" y2="0.701623" gradientUnits="userSpaceOnUse">
      <stop stop-color="#000178"/>
      <stop offset="0.03" stop-color="#020E86"/>
      <stop offset="0.12" stop-color="#0831AB"/>
      <stop offset="0.2" stop-color="#0C4AC6"/>
      <stop offset="0.28" stop-color="#0E5AD6"/>
      <stop offset="0.34" stop-color="#0F5FDC"/>
      <stop offset="0.39" stop-color="#1267DC"/>
      <stop offset="0.47" stop-color="#197EDB"/>
      <stop offset="0.57" stop-color="#25A3DA"/>
      <stop offset="0.68" stop-color="#36D6D9"/>
    </linearGradient>
  </defs>
  <!-- Outer chevron (navy) -->
  <path d="M66.9276 56.9578C67.0446 57.1544 66.951 57.3136 66.7216 57.3136H42.6921C42.4628 57.3136 42.182 57.1544 42.0696 56.9578L33.701 42.7122C33.5839 42.5156 33.3967 42.5156 33.2797 42.7122L24.911 56.9578C24.794 57.1544 24.5132 57.3136 24.2885 57.3136H0.254377C0.0250339 57.3136 -0.0638948 57.1544 0.0484363 56.9578L2.14996 53.3812C2.26698 53.1846 2.5478 53.0254 2.77246 53.0254H21.8313C22.0606 53.0254 22.3415 52.8662 22.4538 52.6696L33.275 34.2482C33.392 34.0516 33.5793 34.0516 33.6963 34.2482L44.5175 52.6696C44.6345 52.8662 44.9153 53.0254 45.14 53.0254H64.1988C64.4282 53.0254 64.709 53.1846 64.8213 53.3812L66.9229 56.9578H66.9276Z" fill="#000178"/>
  <!-- Centre diamond (navy) -->
  <path d="M33.6821 51.0919C33.5651 50.8953 33.3779 50.8953 33.2609 51.0919L29.8629 56.8735C29.7459 57.0701 29.8395 57.2293 30.0688 57.2293H36.8742C37.1035 57.2293 37.1925 57.0701 37.0801 56.8735L33.6821 51.0919Z" fill="#000178"/>
  <!-- Inner A triangles with gradient -->
  <path d="M61.9241 48.3346C62.0411 48.5312 61.9475 48.6904 61.7181 48.6904H47.63C47.4006 48.6904 47.1198 48.5312 47.0075 48.3346L33.7337 25.7373C33.6167 25.5407 33.4294 25.5407 33.3124 25.7373L20.0386 48.3346C19.9216 48.5312 19.6408 48.6904 19.4161 48.6904H5.33262C5.10328 48.6904 5.01435 48.5312 5.12668 48.3346L7.22821 44.758C7.34522 44.5613 7.62605 44.4022 7.85071 44.4022H16.9636C17.1929 44.4022 17.4737 44.243 17.5861 44.0464L33.3124 17.2732C33.4294 17.0766 33.6167 17.0766 33.7337 17.2732L49.46 44.0464C49.577 44.243 49.8579 44.4022 50.0825 44.4022H59.1954C59.4247 44.4022 59.7055 44.5613 59.8179 44.758L61.9194 48.3346H61.9241ZM10.1675 39.7582C10.0505 39.9548 10.1441 40.114 10.3735 40.114H14.5157C14.745 40.114 15.0259 39.9548 15.1382 39.7582L33.3171 8.81389C33.4341 8.61727 33.6213 8.61727 33.7383 8.81389L51.9173 39.7582C52.0343 39.9548 52.3151 40.114 52.5398 40.114H56.682C56.9113 40.114 57.0002 39.9548 56.8879 39.7582L33.7337 0.349858C33.6167 0.153238 33.4294 0.153238 33.3124 0.349858L10.1675 39.7582Z" fill="url(#mark-grad)"/>
</svg>
